<svg xmlns="http://www.w3.org/2000/svg" viewBox="0 0 96 96" id="baby-boy">
  <g>
    <path fill="#2e427d" d="M81.32,33.18v29.5a32.31,32.31,0,0,1-64.62,0c0-41.26,0-27.68,0-30.49a32.31,32.31,0,0,1,64.6,1Z"></path>
    <path fill="#3d5bb4" d="M75.55,27.44V51.68a26.55,26.55,0,1,1-53.09,0c0-33.9,0-22.74,0-25a26.55,26.55,0,0,1,53.08.81Z"></path>
    <path fill="#56baeb" d="M70.75,62.57v4.34A12.56,12.56,0,0,1,58.18,79.47H39.83A12.56,12.56,0,0,1,27.26,66.91c0-4.6-.33-7.76,1.88-12a16.41,16.41,0,0,1,14.54-8.8H54.33A16.43,16.43,0,0,1,70.75,62.57Z"></path>
    <path fill="#9decff" d="M66.9,64.27v3.9c0,6.24-4.63,11.3-10.34,11.3H41.45c-5.71,0-10.34-5.06-10.34-11.3,0-4.13-.27-7,1.54-10.75a13.42,13.42,0,0,1,12-7.91h8.77C60.85,49.51,66.9,56.13,66.9,64.27Z"></path>
    <path fill="#383d73" d="M57.64,46.49v8.2a8.64,8.64,0,1,1-17.27,0v-8.2c2.19-.45,2.6-.34,14-.34A16.52,16.52,0,0,1,57.64,46.49Z"></path>
    <path fill="#385ba5" d="M53.42,57.07a5,5,0,0,1-8.82,0,1.79,1.79,0,0,0-1.55-1h-.22a1.71,1.71,0,0,0-1.55,2.44,8.62,8.62,0,0,0,15.45,0,1.7,1.7,0,0,0-1.55-2.44A1.79,1.79,0,0,0,53.42,57.07Z"></path>
    <path fill="#fbab9a" d="M54,46.15v8.54a5,5,0,1,1-10.07,0V46.15Z"></path>
    <ellipse cx="26.92" cy="30.95" fill="#fbab9a" rx="6.6" ry="6.18"></ellipse>
    <ellipse cx="71.09" cy="30.95" fill="#fbab9a" rx="6.6" ry="6.18"></ellipse>
    <path fill="#fbc9bd" d="M72.28,31c0,11.83-10.42,21.42-23.27,21.42S25.74,42.78,25.74,31,36.32,9.54,49,9.54C61.86,9.54,72.28,19.13,72.28,31Z"></path>
    <path fill="#4c9ceb" d="M49,95A32.31,32.31,0,0,1,16.7,62.68c0-31.49-.08-30.59,0-30.49A27.32,27.32,0,0,0,27.18,53.72l13.65,10.7a21.31,21.31,0,0,1,8.09,15C49,80.64,49,80.78,49,95Z"></path>
    <path fill="#6abaeb" d="M48,88.76V95A32.32,32.32,0,0,1,16.7,62.68V46.91a27.27,27.27,0,0,0,9.51,14.37L39.86,72A21.33,21.33,0,0,1,48,88.76Z"></path>
    <path fill="#c6ecff" d="M81.32,62.68c0,24.56-26.28,39.9-47.49,28.52A24.62,24.62,0,0,1,43,75.53L70.83,53.72A27.33,27.33,0,0,0,81.3,32.19C81.4,32.09,81.32,31.4,81.32,62.68Z"></path>
    <path fill="#74c9ff" d="M81.32,62.68a32.33,32.33,0,0,1-40,31.38,20.75,20.75,0,0,1,7-14.59c1.07-.91,24.14-19,24.25-19a22.86,22.86,0,0,0,8.77-18C81.4,42.33,81.32,41.81,81.32,62.68Z"></path>
    <path fill="#9decff" d="M51.1,83.68c2.85-2.53,8-6.32,18.25-14.34a1.9,1.9,0,0,1,3,2.13A26.46,26.46,0,0,1,53.53,88.3,2.69,2.69,0,0,1,51.1,83.68Z"></path>
    <path fill="#fff" d="M35.72 84.83a24.62 24.62 0 00-1.89 6.37 31.63 31.63 0 007.47 2.86 20.56 20.56 0 011.32-6.38 3.74 3.74 0 00-6.9-2.85zM65.43 58l-1 .75a3.16 3.16 0 003.92 5l1-.75a3.16 3.16 0 00-3.91-5zM54.43 66.57l-5.32 4.17a3.16 3.16 0 003.92 5l5.32-4.17a3.16 3.16 0 00-3.92-5z"></path>
    <path fill="#302d3d" d="M39 33.54a1 1 0 001-1V31.15a1 1 0 00-2 0v1.39A1 1 0 0039 33.54zM57 33.54a1 1 0 001-1V31.15a1 1 0 00-2 0v1.39A1 1 0 0057 33.54zM52.06 40.84a1 1 0 00-1.41-1.41 3.87 3.87 0 01-5.32 0 1 1 0 00-1.41 1.41A5.73 5.73 0 0052.06 40.84z"></path>
    <path fill="#302d3d" d="M81.27,32A33,33,0,0,0,47.85,0,33,33,0,0,0,14.72,32a.78.78,0,0,0,0,.22c0,32.73-.23,32.83.71,37.35A33.21,33.21,0,0,0,33.74,92.78c21.88,10.45,47.56-5.61,47.56-30.1C81.3,29.71,81.32,32.18,81.27,32Zm-2,32.54A31.33,31.33,0,0,1,41.34,93.26a19.78,19.78,0,0,1,7.48-13.78L72.13,61.21A23.68,23.68,0,0,0,79.3,52C79.3,63.84,79.33,63.11,79.25,64.5ZM33.93,90.64a23.62,23.62,0,0,1,6.29-12.17c1.32-1.37-.51.13,27.37-21.73,4-3.13,8.67-6.45,11.68-14A21.69,21.69,0,0,1,70.9,59.63C45.82,79.29,47.37,78.07,47.26,78.17a21.75,21.75,0,0,0-7.85,14.61A28.63,28.63,0,0,1,33.93,90.64ZM17.32,69c-.84-4.11-.64-4.54-.64-26.39a28.49,28.49,0,0,0,8.86,11.94c3.14,2.44-3.4-2.66,13.65,10.7a20.21,20.21,0,0,1,5.61,6.85l-3.42,2.68a25.61,25.61,0,0,0-9.29,14.89A31.21,31.21,0,0,1,17.32,69Zm7-33a5.08,5.08,0,0,1,0-9.94A20.63,20.63,0,0,0,24.33,35.92Zm2.11.18C24,27.45,28,18.27,36.41,13.53a16.68,16.68,0,0,0,2.34,5.88,1,1,0,0,0,.84.46,1,1,0,0,0,.84-1.54,14.78,14.78,0,0,1-2.13-5.74c.58-.26,1.17-.49,1.77-.7a12.86,12.86,0,0,0,6.07,9.5,1,1,0,0,0,.52.15,1,1,0,0,0,.53-1.86A10.82,10.82,0,0,1,42,11.3c.6-.15,1.2-.28,1.82-.39a9.06,9.06,0,0,0,9,8.52,1,1,0,0,0,0-2,7,7,0,0,1-7-6.78C58.92,9.48,70.26,18.92,70.26,31,70.26,41.34,61.72,49.59,52,51,40.43,53.06,29.23,46.17,26.44,36.1ZM71.65,26a5.08,5.08,0,0,1,0,9.94A20.39,20.39,0,0,0,71.65,26ZM40.36,52.23c.53.16,1.06.31,1.6.44v2a6,6,0,1,0,12.06,0v-2c.54-.13,1.07-.28,1.6-.44v2.46a7.63,7.63,0,1,1-15.26,0Zm3.6.82a25.63,25.63,0,0,0,8.06,0v1.64a4,4,0,1,1-8.06,0Zm-5.6-1.53v3.17a9.63,9.63,0,1,0,19.26,0V51.52a24.55,24.55,0,0,0,3.93-2,15.36,15.36,0,0,1,5.13,5.37L46.4,70.8a22.42,22.42,0,0,0-6-7.17L29.3,54.9a15.36,15.36,0,0,1,5.13-5.37A24.55,24.55,0,0,0,38.36,51.52ZM47.85,2A31,31,0,0,1,79.28,32.19h0A26.22,26.22,0,0,1,69.19,52.93l-.92.72a17.12,17.12,0,0,0-4.95-5.34A22.45,22.45,0,0,0,71,38.07,7.34,7.34,0,0,0,77.68,31,7.34,7.34,0,0,0,71,23.83c-4.17-11.47-17.58-18-30.34-14.24a.38.38,0,0,1-.1,0A23.55,23.55,0,0,0,25,23.83,7.34,7.34,0,0,0,18.3,31,7.34,7.34,0,0,0,25,38.07a22.45,22.45,0,0,0,7.68,10.24,17.27,17.27,0,0,0-4.95,5.35l-.93-.73A26.54,26.54,0,0,1,16.7,32.21,31,31,0,0,1,47.85,2Z"></path>
  </g>
</svg>
